<svg width="429" height="43.45268001254778" viewBox="0 0 349.4581234555352 35.39601868601116" class="looka-1j8o68f"><defs id="SvgjsDefs4150"></defs><g id="SvgjsG4151" featurekey="symbolFeature-0" transform="matrix(0.716315571229222,0,0,0.716315571229222,-3.58157785614611,-18.117769218455518)" fill="#111111"><path xmlns="http://www.w3.org/2000/svg" d="M38.481,69.952l-1.83,3.17H63.35l-1.83-3.17H38.481 M63.35,26.878H36.651l1.83,3.17h23.038L63.35,26.878   M40.311,33.218L30.622,50l9.689,16.782h19.378L69.378,50l-9.689-16.782H40.311 M35.736,74.707L21.471,50l14.264-24.707h28.529  L78.529,50L64.265,74.707H35.736" style="fill-rule: evenodd; clip-rule: evenodd;"></path><polyline xmlns="http://www.w3.org/2000/svg" points="77.614,35.736 82.189,27.811 95,50 82.189,72.189 77.614,64.264 85.85,50 77.614,35.736 " style="fill-rule: evenodd; clip-rule: evenodd;"></polyline><polyline xmlns="http://www.w3.org/2000/svg" points="17.811,72.189 5,50 17.811,27.811 22.386,35.736 14.151,50 22.386,64.264 17.811,72.189 " style="fill-rule: evenodd; clip-rule: evenodd;"></polyline></g><g id="SvgjsG4152" featurekey="nameFeature-0" transform="matrix(0.635464045175457,0,0,0.635464045175457,83.44136304979428,1.602798925026491)" fill="#111111"><path d="M19.59 12.012 l0 4.4922 l-6.8359 0 l0 23.496 l-5.0195 0 l0 -23.496 l-6.8555 0 l0 -4.4922 l18.711 0 z M49.45919140625 40 l-2.1484 -6.0742 l-12.07 0 l-2.1484 6.0742 l-5.2148 0 l10.313 -27.988 l6.1719 0 l10.293 27.988 l-5.1953 0 z M36.76419140625 29.628999999999998 l9.0234 0 l-4.5117 -12.754 z M84.9344765625 12.012 l5.0586 0 l0 27.988 l-5.7422 0 l-13.281 -20.918 l0 20.918 l-5.0391 0 l0 -27.988 l5.6836 0 l13.32 20.762 l0 -20.762 z M116.38579296875 40.39063 c-7.9688 0 -13.945 -5.4883 -13.945 -14.316 c0 -8.9063 6.0547 -14.434 14.18 -14.434 c5.293 0 9.7461 2.3242 12.188 6.5625 l-4.4727 2.3828 c-1.582 -3.0469 -4.4141 -4.4727 -7.7148 -4.4727 c-5.1563 0 -9.1016 3.5352 -9.1016 9.8438 c0 6.1719 3.75 9.9609 9.2773 9.9609 c4.043 0 7.5195 -2.1289 8.2422 -6.6797 l-8.2422 0 l0 -4.1406 l13.086 0 l0 14.902 l-4.043 0 l0 -4.3359 c-1.8164 2.9688 -5 4.7266 -9.4531 4.7266 z M153.091421875 40.39063 c-6.0156 0 -10.703 -3.2617 -10.703 -10.02 l0 -18.359 l5.0781 0 l0 17.676 c0 4.375 2.4609 6.1719 5.625 6.1719 c3.1445 0 5.6641 -1.8164 5.6641 -6.1719 l0 -17.676 l5.0586 0 l0 18.359 c0 6.7578 -4.6875 10.02 -10.723 10.02 z M197.78567578125 12.012 l-9.1992 14.609 l0 13.379 l-5.0977 0 l0 -13.32 l-9.2383 -14.668 l5.6641 0 l6.1133 10.137 l6.1328 -10.137 l5.625 0 z M230.88426484375 35.4883 l9.082 0 l0 4.5117 l-14.16 0 l0 -27.988 l5.0781 0 l0 23.477 z M267.19971875 16.504 l-10.684 0 l0 7.2852 l9.4531 0 l0 4.4531 l-9.4531 0 l0 7.2461 l10.684 0 l0 4.5117 l-15.82 0 l0 -27.988 l15.82 0 l0 4.4922 z M309.1255390625 40.39063 c-7.9688 0 -13.945 -5.4883 -13.945 -14.316 c0 -8.9063 6.0547 -14.434 14.18 -14.434 c5.293 0 9.7461 2.3242 12.188 6.5625 l-4.4727 2.3828 c-1.582 -3.0469 -4.4141 -4.4727 -7.7148 -4.4727 c-5.1563 0 -9.1016 3.5352 -9.1016 9.8438 c0 6.1719 3.75 9.9609 9.2773 9.9609 c4.043 0 7.5195 -2.1289 8.2422 -6.6797 l-8.2422 0 l0 -4.1406 l13.086 0 l0 14.902 l-4.043 0 l0 -4.3359 c-1.8164 2.9688 -5 4.7266 -9.4531 4.7266 z M347.98016796875 40.39063 c-8.125 0 -14.18 -5.5664 -14.18 -14.395 s6.0547 -14.355 14.18 -14.355 c8.0859 0 14.16 5.5273 14.16 14.355 s-6.0742 14.395 -14.16 14.395 z M347.98016796875 35.7031 c5.1172 0 9.1211 -3.5742 9.1211 -9.707 c0 -6.0742 -4.0039 -9.668 -9.1211 -9.668 c-5.1367 0 -9.1406 3.5938 -9.1406 9.668 c0 6.1328 4.0039 9.707 9.1406 9.707 z M390.642703125 16.504 l-10.918 0 l0 7.2656 l9.4531 0 l0 4.4727 l-9.4531 0 l0 11.758 l-5.1367 0 l0 -27.988 l16.055 0 l0 4.4922 z M418.61780078125 16.504 l-10.918 0 l0 7.2656 l9.4531 0 l0 4.4727 l-9.4531 0 l0 11.758 l-5.1367 0 l0 -27.988 l16.055 0 l0 4.4922 z"></path></g></svg>