<?xml version="1.0" encoding="UTF-8"?>
<svg id="katman_1" data-name="katman 1" xmlns="http://www.w3.org/2000/svg" version="1.1" viewBox="0 0 841.89 595.28">
  <defs>
    <style>
      .cls-1 {
        fill: #00dc82;
      }

      .cls-1, .cls-2 {
        stroke-width: 0px;
      }

      .cls-2 {
        fill: #1d1d1b;
      }
    </style>
  </defs>
  <path class="cls-2" d="M401.07,384c1.87,0,3.46-1.55,3.46-3.46v-80.53s4.33,7.79,12.12,20.78l33.77,58.01c1.55,3.24,4.97,5.2,7.79,5.2h23.38v-129.88h-23.38c-1.56,0-3.46,1.29-3.46,3.46v81.39l-15.59-27.71-31.17-52.82c-1.52-2.69-4.78-4.33-7.79-4.33h-22.51v129.88h23.38Z"/>
  <path class="cls-2" d="M703.26,290.48h11.26c2.87,0,5.2-2.33,5.2-5.2v-22.51h24.24v27.71h23.38v20.78h-23.38v37.23c0,9.09,4.38,12.99,12.12,12.99h11.26v22.51h-14.72c-19.96,0-32.9-12.93-32.9-34.63v-38.1h-16.45v-20.78Z"/>
  <path class="cls-2" d="M586.37,290.48v53.68c0,12.13-4.55,22.35-11.26,29.44-6.7,7.09-15.96,10.39-28.57,10.39s-22.74-3.3-29.44-10.39c-6.59-7.09-11.26-17.31-11.26-29.44v-53.68h13.85c2.95,0,5.86.54,7.79,2.6,1.93,1.94,2.6,3.09,2.6,6.06v45.03c0,6.98.4,11.29,3.46,14.72,3.07,3.32,6.85,4.33,12.99,4.33s9.05-1.01,12.12-4.33c3.07-3.43,3.46-7.74,3.46-14.72v-45.03c0-2.97.67-4.87,2.6-6.93,1.7-1.81,3.49-1.77,6.06-1.73.36,0,1.37,0,1.73,0h13.85Z"/>
  <path class="cls-2" d="M659.97,335.51l29.44-45.03h-22.51c-2.84,0-5.36,1.02-6.93,3.46l-13.85,20.78-12.99-19.91c-1.57-2.45-4.96-4.33-7.79-4.33h-21.65l29.44,44.16-32.04,49.35h22.51c2.81,0,5.35-2.78,6.93-5.2l15.59-23.38,16.45,24.24c1.57,2.41,4.11,4.33,6.93,4.33h22.51l-32.04-48.49Z"/>
  <path class="cls-1" d="M220.11,384h96.11c3.07,0,6-1.08,8.66-2.6s5.39-3.43,6.93-6.06,2.6-5.62,2.6-8.66c0-3.04-1.06-6.03-2.6-8.66l-64.94-111.7c-1.53-2.63-3.41-4.54-6.06-6.06s-6.46-2.6-9.52-2.6-6,1.08-8.66,2.6-4.53,3.43-6.06,6.06l-16.45,28.57-32.9-55.42c-1.53-2.63-3.4-5.41-6.06-6.92-2.66-1.52-5.59-1.73-8.66-1.73s-6,.21-8.66,1.73c-2.66,1.52-5.39,4.29-6.93,6.92l-80.53,138.54c-1.54,2.63-1.73,5.62-1.73,8.66,0,3.04.2,6.03,1.73,8.66,1.53,2.63,4.27,4.54,6.93,6.06,2.66,1.52,5.59,2.6,8.66,2.6h60.61c24.02,0,41.5-10.77,53.68-31.17l29.44-51.09,15.59-26.84,47.62,81.39h-63.21l-15.59,27.71ZM151.7,356.29h-42.43l63.21-109.1,32.04,54.55-21.22,36.99c-8.09,13.23-17.32,17.56-31.6,17.56Z"/>
</svg>